HIERARCHY
ROOT Hips
{
	OFFSET 0.00000 0.00000 0.00000
	CHANNELS 6 Xposition Yposition Zposition Zrotation Yrotation Xrotation 
	JOINT LHipJoint
	{
		OFFSET 0 0 0
		CHANNELS 3 Zrotation Yrotation Xrotation
		JOINT LeftUpLeg
		{
			OFFSET 1.62067 -1.77917 0.70989
			CHANNELS 3 Zrotation Yrotation Xrotation
			JOINT LeftLeg
			{
				OFFSET 2.34532 -6.44371 0.00000
				CHANNELS 3 Zrotation Yrotation Xrotation
				JOINT LeftFoot
				{
					OFFSET 2.74224 -7.53425 0.00000
					CHANNELS 3 Zrotation Yrotation Xrotation
					JOINT LeftToeBase
					{
						OFFSET 0.17032 -0.46794 2.08086
						CHANNELS 3 Zrotation Yrotation Xrotation
						End Site
						{
							OFFSET 0.00000 -0.00000 1.07476
						}
					}
				}
			}
		}
	}
	JOINT RHipJoint
	{
		OFFSET 0 0 0
		CHANNELS 3 Zrotation Yrotation Xrotation
		JOINT RightUpLeg
		{
			OFFSET -1.55811 -1.77917 0.70989
			CHANNELS 3 Zrotation Yrotation Xrotation
			JOINT RightLeg
			{
				OFFSET -2.33243 -6.40830 0.00000
				CHANNELS 3 Zrotation Yrotation Xrotation
				JOINT RightFoot
				{
					OFFSET -2.78798 -7.65993 0.00000
					CHANNELS 3 Zrotation Yrotation Xrotation
					JOINT RightToeBase
					{
						OFFSET -0.22707 -0.62388 2.04059
						CHANNELS 3 Zrotation Yrotation Xrotation
						End Site
						{
							OFFSET -0.00000 -0.00000 1.07030
						}
					}
				}
			}
		}
	}
	JOINT LowerBack
	{
		OFFSET 0 0 0
		CHANNELS 3 Zrotation Yrotation Xrotation
		JOINT Spine
		{
			OFFSET 0.02203 1.91565 0.07161
			CHANNELS 3 Zrotation Yrotation Xrotation
			JOINT Spine1
			{
				OFFSET 0.01740 1.90525 0.11636
				CHANNELS 3 Zrotation Yrotation Xrotation
				JOINT Neck
				{
					OFFSET 0 0 0
					CHANNELS 3 Zrotation Yrotation Xrotation
					JOINT Neck1
					{
						OFFSET -0.10841 1.83566 0.05067
						CHANNELS 3 Zrotation Yrotation Xrotation
						JOINT Head
						{
							OFFSET 0.06601 1.74760 -0.50505
							CHANNELS 3 Zrotation Yrotation Xrotation
							End Site
							{
								OFFSET 0.03102 1.85215 -0.17697
							}
						}
					}
				}
				JOINT LeftShoulder
				{
					OFFSET 0 0 0
					CHANNELS 3 Zrotation Yrotation Xrotation
					JOINT LeftArm
					{
						OFFSET 2.87059 1.35470 0.16111
						CHANNELS 3 Zrotation Yrotation Xrotation
						JOINT LeftForeArm
						{
							OFFSET 5.43592 -0.00000 0.00000
							CHANNELS 3 Zrotation Yrotation Xrotation
							JOINT LeftHand
							{
								OFFSET 3.25460 -0.00000 0.00000
								CHANNELS 3 Zrotation Yrotation Xrotation
								JOINT LeftFingerBase
								{
									OFFSET 0 0 0
									CHANNELS 3 Zrotation Yrotation Xrotation
									JOINT LeftHandIndex1
									{
										OFFSET 0.49824 -0.00000 0.00000
										CHANNELS 3 Zrotation Yrotation Xrotation
										End Site
										{
											OFFSET 0.40170 -0.00000 0.00000
										}
									}
								}
								JOINT LThumb
								{
									OFFSET 0 0 0
									CHANNELS 3 Zrotation Yrotation Xrotation
									End Site
									{
										OFFSET 0.40783 -0.00000 0.40783
									}
								}
							}
						}
					}
				}
				JOINT RightShoulder
				{
					OFFSET 0 0 0
					CHANNELS 3 Zrotation Yrotation Xrotation
					JOINT RightArm
					{
						OFFSET -2.86643 1.23488 0.45957
						CHANNELS 3 Zrotation Yrotation Xrotation
						JOINT RightForeArm
						{
							OFFSET -5.33830 -0.00000 0.00000
							CHANNELS 3 Zrotation Yrotation Xrotation
							JOINT RightHand
							{
								OFFSET -3.23148 -0.00000 0.00000
								CHANNELS 3 Zrotation Yrotation Xrotation
								JOINT RightFingerBase
								{
									OFFSET 0 0 0
									CHANNELS 3 Zrotation Yrotation Xrotation
									JOINT RightHandIndex1
									{
										OFFSET -0.46364 -0.00000 0.00000
										CHANNELS 3 Zrotation Yrotation Xrotation
										End Site
										{
											OFFSET -0.37380 -0.00000 0.00000
										}
									}
								}
								JOINT RThumb
								{
									OFFSET 0 0 0
									CHANNELS 3 Zrotation Yrotation Xrotation
									End Site
									{
										OFFSET -0.37951 -0.00000 0.37951
									}
								}
							}
						}
					}
				}
			}
		}
	}
}
MOTION
Frames: 14
Frame Time: .0083333
4.8924 16.2882 2.2063 -7.8120 -9.4507 5.4739 0.0000 0.0000 0.0000 -19.0947 -6.1850 -32.5616 8.1607 16.2362 53.1396 1.8845 -3.4034 -25.1100 0.3775 3.9459 10.9246 0.0000 0.0000 0.0000 1.7921 18.8851 -108.2362 -25.3763 -19.2924 105.8994 -7.3613 -9.7416 50.4713 -0.0261 1.0421 -2.8646 4.0602 -1.3748 20.9001 2.0010 -0.8156 4.8735 0.0573 -0.4595 -6.3955 -1.4440 -0.8464 -15.4951 -1.3435 -0.4541 36.7599 -0.4118 -0.6416 15.5373 -0.0000 -0.0000 0.0000 -31.0024 22.5237 0.3991 13.2612 -21.6688 -2.5489 -0.0000 0.0000 -10.5404 29.7046 -29.5164 -15.6990 -7.1250 0.0000 -0.0000 -0.6978 -3.1145 0.7347 -0.0000 -0.0000 0.0000 34.3406 -30.4049 -0.9313 -16.9488 26.7903 -4.0643 0.0000 0.0000 8.0351 -29.7408 -44.8005 21.9290 7.1250 -0.0000 -0.0000 20.2233 -78.1713 -15.7540
4.8902 16.2880 2.2072 -7.7932 -9.5940 5.4204 0.0000 0.0000 0.0000 -19.1331 -6.1394 -32.4453 8.1515 16.2296 53.1067 1.8940 -3.3059 -25.1950 0.3759 3.9380 10.9022 0.0000 0.0000 0.0000 1.7981 19.0595 -108.1071 -25.3118 -19.3096 105.7043 -7.3349 -9.3774 50.4036 -0.0445 1.3610 -3.7427 3.9774 -1.3275 20.9738 2.0082 -0.7659 4.8461 0.1010 -0.4355 -6.4616 -1.3947 -0.8373 -15.3863 -1.4244 -0.4297 36.6873 -0.4490 -0.6352 15.4751 -0.0000 0.0000 0.0000 -30.7292 22.8491 0.0273 13.3009 -21.7265 -2.5636 -0.0000 0.0000 -10.1218 29.8026 -28.8470 -15.4478 -7.1250 0.0000 -0.0000 -0.5182 -2.4255 0.5397 -0.0000 0.0000 0.0000 33.9359 -30.4924 -0.9125 -16.6975 26.4573 -3.9516 0.0000 0.0000 8.3042 -30.5958 -44.2952 22.4375 7.1250 -0.0000 -0.0000 17.4370 -78.0780 -13.5271
4.8887 16.2914 2.2073 -7.8318 -9.7981 5.3564 0.0000 0.0000 0.0000 -19.1110 -6.0777 -32.3188 8.1413 16.2222 53.0699 1.9110 -3.1340 -25.3468 0.3570 3.8386 10.6230 0.0000 0.0000 0.0000 1.8938 19.3053 -107.8941 -25.2259 -19.3322 105.4447 -7.3149 -9.6167 50.3077 -0.0461 1.3856 -3.8104 3.9347 -1.2707 21.0909 2.0233 -0.6940 4.8426 0.1250 -0.4012 -6.5243 -1.4400 -0.8167 -15.3109 -1.3887 -0.4003 36.6493 -0.4198 -0.6242 15.4388 -0.0000 -0.0000 0.0000 -30.4239 23.0742 -0.3277 13.1861 -21.5593 -2.5213 -0.0000 0.0000 -9.6490 29.9828 -28.9010 -15.5805 -7.1250 0.0000 -0.0000 -0.4242 -2.5306 0.4425 -0.0000 -0.0000 0.0000 33.6364 -30.4193 -1.2174 -16.4784 26.1651 -3.8545 0.0000 0.0000 8.5342 -30.7338 -44.1396 22.4922 7.1250 -0.0000 -0.0000 16.7997 -77.9961 -13.0000
4.8876 16.2935 2.2067 -7.9436 -9.9002 5.3577 0.0000 0.0000 0.0000 -18.9930 -6.0992 -32.2622 8.1313 16.2150 53.0344 1.9170 -2.9405 -25.4285 0.4128 4.1244 11.4270 0.0000 0.0000 0.0000 2.0523 19.4512 -107.7836 -25.1717 -19.3463 105.2811 -7.3034 -10.0608 50.2282 -0.0298 1.1148 -3.0646 4.0377 -1.2566 21.0881 2.0229 -0.6566 4.8934 0.0555 -0.3839 -6.4673 -1.4759 -0.8164 -15.3802 -1.2652 -0.4332 36.5704 -0.3662 -0.6251 15.4168 0.0000 0.0000 0.0000 -30.0678 23.1714 -0.8535 12.8721 -21.0996 -2.4071 -0.0000 0.0000 -9.0381 29.4259 -29.1197 -15.3494 -7.1250 0.0000 -0.0000 -0.7850 -2.6185 0.8201 0.0000 0.0000 0.0000 33.4625 -30.3815 -1.2975 -16.3253 25.9597 -3.7872 0.0000 0.0000 8.3950 -30.8531 -43.9458 22.5172 7.1250 -0.0000 -0.0000 16.1069 -77.8715 -12.4181
4.8873 16.2937 2.2081 -7.9624 -9.9158 5.3830 0.0000 0.0000 0.0000 -18.9788 -6.2134 -32.2083 8.1180 16.2054 52.9867 1.9098 -2.7882 -25.4115 0.5758 4.8592 13.5074 0.0000 0.0000 0.0000 2.0764 19.4623 -107.7859 -25.1549 -19.3506 105.2304 -7.2923 -10.1498 50.1795 -0.0165 0.8304 -2.2821 4.1153 -1.2839 21.0192 1.9816 -0.6844 4.9257 -0.0277 -0.3974 -6.3978 -1.3864 -0.8025 -15.4954 -1.2944 -0.4281 36.5696 -0.3944 -0.6149 15.4431 -0.0000 0.0000 0.0000 -29.7360 23.4476 -1.2886 12.6982 -20.8434 -2.3448 -0.0000 0.0000 -8.8839 27.5255 -27.6432 -13.5925 -7.1250 0.0000 -0.0000 -1.6379 -0.5753 1.6549 -0.0000 0.0000 0.0000 33.3041 -30.2809 -1.4640 -16.1424 25.7134 -3.7075 0.0000 0.0000 8.5156 -31.2282 -43.6320 22.7024 7.1250 -0.0000 -0.0000 14.6982 -77.7381 -11.2835
4.8889 16.2956 2.2094 -7.8796 -9.9581 5.4059 0.0000 0.0000 0.0000 -19.0881 -6.3825 -32.1327 8.0977 16.1906 52.9139 1.9018 -2.5971 -25.3986 0.6786 5.2674 14.6728 0.0000 0.0000 0.0000 1.9812 19.4517 -107.8103 -25.1378 -19.3550 105.1787 -7.2980 -10.2846 50.1906 -0.0058 0.4929 -1.3544 4.0982 -1.3027 20.9879 1.9287 -0.7169 4.8979 -0.0668 -0.4134 -6.4133 -1.3171 -0.7717 -15.5197 -1.3861 -0.3701 36.6298 -0.4366 -0.5948 15.4780 -0.0000 0.0000 0.0000 -29.4103 23.8578 -1.3103 12.6871 -20.8270 -2.3409 -0.0000 0.0000 -9.0699 26.3547 -26.0879 -12.2904 -7.1250 0.0000 -0.0000 -2.0954 1.3432 2.0471 -0.0000 0.0000 0.0000 33.1011 -30.1155 -1.9411 -15.8982 25.3824 -3.6022 0.0000 0.0000 9.0727 -31.2728 -43.4967 22.6876 7.1250 -0.0000 -0.0000 14.3034 -77.6331 -10.9474
4.8917 16.3005 2.2093 -7.8219 -9.9820 5.4572 0.0000 0.0000 0.0000 -19.1581 -6.5983 -32.0834 8.0730 16.1727 52.8253 1.8880 -2.4503 -25.3362 0.7198 5.4216 15.1151 0.0000 0.0000 0.0000 1.9198 19.4358 -107.8053 -25.0976 -19.3652 105.0573 -7.3012 -10.6237 50.1782 -0.0012 0.2270 -0.6238 4.1160 -1.3037 21.0089 1.8973 -0.7126 4.8343 -0.1106 -0.4130 -6.4939 -1.2915 -0.7877 -15.5555 -1.4498 -0.3771 36.6752 -0.4703 -0.6034 15.5088 -0.0000 -0.0000 0.0000 -29.0027 24.0065 -1.4479 12.4540 -20.4820 -2.2586 -0.0000 0.0000 -8.5988 26.3169 -25.9553 -12.2144 -7.1250 0.0000 -0.0000 -2.0990 1.4924 2.0450 -0.0000 -0.0000 0.0000 32.8453 -30.1522 -2.0457 -15.7557 25.1882 -3.5413 0.0000 0.0000 9.1596 -31.0184 -43.7531 22.5789 7.1250 -0.0000 -0.0000 15.3509 -77.7645 -11.7968
4.8939 16.3034 2.2126 -7.7000 -10.0560 5.4763 0.0000 0.0000 0.0000 -19.3055 -6.7559 -31.9987 8.0434 16.1511 52.7188 1.8772 -2.2927 -25.2980 0.7438 5.5092 15.3668 0.0000 0.0000 0.0000 1.8057 19.4454 -107.7979 -25.0545 -19.3761 104.9274 -7.2920 -10.6031 50.1448 -0.0025 0.3210 -0.8821 4.0757 -1.2868 21.0509 1.8301 -0.6983 4.7556 -0.1622 -0.4077 -6.6016 -1.3728 -0.8331 -15.5399 -1.3528 -0.4562 36.7567 -0.4294 -0.6351 15.5458 -0.0000 0.0000 0.0000 -28.5348 24.1362 -1.6095 12.1612 -20.0459 -2.1572 -0.0000 0.0000 -7.9840 26.2759 -26.0344 -12.2266 -7.1250 0.0000 -0.0000 -2.1350 1.4172 2.0830 -0.0000 0.0000 0.0000 32.5894 -30.2873 -1.9467 -15.6822 25.0879 -3.5101 0.0000 0.0000 9.1828 -31.0330 -44.2180 22.7620 7.1250 -0.0000 -0.0000 16.4895 -78.1849 -12.8212
4.8931 16.3053 2.2144 -7.5817 -10.1472 5.4593 0.0000 0.0000 0.0000 -19.4449 -6.8484 -31.8901 8.0105 16.1270 52.6006 1.8665 -2.1228 -25.2641 0.7390 5.4917 15.3164 0.0000 0.0000 0.0000 1.7332 19.4888 -107.7675 -25.0068 -19.3881 104.7838 -7.2894 -10.3233 50.1553 -0.0084 0.5919 -1.6265 4.0021 -1.2973 21.0734 1.7542 -0.7295 4.6887 -0.1928 -0.4234 -6.6877 -1.5469 -0.8384 -15.4229 -1.1120 -0.5040 36.8599 -0.3049 -0.6477 15.5704 -0.0000 0.0000 0.0000 -28.1149 24.5416 -1.6186 12.0914 -19.9415 -2.1334 -0.0000 0.0000 -7.7609 26.1098 -25.9682 -12.1122 -7.1250 0.0000 -0.0000 -2.2252 1.5234 2.1669 -0.0000 0.0000 0.0000 32.3651 -30.3245 -1.9324 -15.6105 24.9897 -3.4798 0.0000 0.0000 9.5104 -31.3594 -44.5124 23.1346 7.1250 -0.0000 -0.0000 16.7031 -78.5758 -13.1213
4.8910 16.3098 2.2152 -7.5278 -10.1687 5.4169 0.0000 0.0000 0.0000 -19.5117 -6.9937 -31.7186 7.9717 16.0984 52.4605 1.8551 -1.9489 -25.2270 0.7412 5.4999 15.3400 0.0000 0.0000 0.0000 1.7802 19.4959 -107.6318 -24.9423 -19.4040 104.5895 -7.2638 -10.2541 50.0644 -0.0119 0.7043 -1.9354 3.9738 -1.3285 21.0218 1.7216 -0.7817 4.6947 -0.1992 -0.4479 -6.6559 -1.6649 -0.8195 -15.2842 -0.9779 -0.4933 36.8302 -0.2240 -0.6415 15.5236 0.0000 0.0000 0.0000 -27.8450 24.9578 -1.8844 12.0324 -19.8532 -2.1133 -0.0000 0.0000 -7.5189 26.2698 -26.1337 -12.2655 -7.1250 0.0000 -0.0000 -2.1529 1.3130 2.1045 0.0000 0.0000 0.0000 32.0920 -30.2951 -1.7989 -15.5744 24.9402 -3.4645 0.0000 0.0000 9.4019 -31.5098 -44.6038 23.2906 7.1250 -0.0000 -0.0000 16.6889 -78.7170 -13.1577
4.8919 16.3159 2.2208 -7.4183 -10.2158 5.3578 0.0000 0.0000 0.0000 -19.6731 -7.1994 -31.4644 7.9237 16.0628 52.2872 1.8556 -1.6647 -25.3030 0.7212 5.4266 15.1294 0.0000 0.0000 0.0000 1.7560 19.4648 -107.4887 -24.8959 -19.4153 104.4501 -7.2232 -10.2172 49.9142 -0.0157 0.8102 -2.2268 3.9475 -1.3114 20.8748 1.6765 -0.7813 4.7972 -0.2372 -0.4444 -6.4675 -1.6980 -0.8243 -15.2653 -0.9577 -0.4964 36.6285 -0.2078 -0.6422 15.4200 0.0000 -0.0000 0.0000 -27.6745 25.2043 -2.1887 12.0172 -19.8304 -2.1081 -0.0000 0.0000 -7.4963 26.3909 -25.8107 -12.1912 -7.1250 0.0000 -0.0000 -2.0339 1.6300 1.9765 0.0000 -0.0000 0.0000 31.8891 -30.3186 -1.7945 -15.4940 24.8298 -3.4307 0.0000 0.0000 9.0276 -31.8047 -44.3260 23.4279 7.1250 -0.0000 -0.0000 15.4147 -78.5903 -12.1059
4.8966 16.3223 2.2293 -7.2083 -10.3228 5.3300 0.0000 0.0000 0.0000 -19.9686 -7.3938 -31.2463 7.8692 16.0222 52.0904 1.8590 -1.3787 -25.4030 0.6875 5.3010 14.7691 0.0000 0.0000 0.0000 1.5685 19.4087 -107.4569 -24.8910 -19.4165 104.4353 -7.1944 -10.2630 49.8016 -0.0214 0.9446 -2.5963 3.8813 -1.2691 20.7185 1.5853 -0.7597 4.8908 -0.3074 -0.4304 -6.2836 -1.7624 -0.8564 -15.3280 -0.8812 -0.5484 36.4269 -0.1713 -0.6598 15.3370 -0.0000 0.0000 0.0000 -27.4528 25.3461 -2.4814 12.0394 -19.8637 -2.1157 -0.0000 0.0000 -7.6374 25.7599 -24.8307 -11.4555 -7.1250 0.0000 -0.0000 -2.2797 2.8057 2.1671 -0.0000 0.0000 0.0000 31.7673 -30.4548 -1.8144 -15.4195 24.7273 -3.3995 0.0000 0.0000 8.8531 -32.1379 -43.9389 23.5532 7.1250 -0.0000 -0.0000 13.8231 -78.3760 -10.7876
4.8996 16.3296 2.2380 -7.0201 -10.4148 5.3312 0.0000 0.0000 0.0000 -20.2247 -7.5813 -31.0645 7.8119 15.9791 51.8823 1.8525 -1.1115 -25.4317 0.6811 5.2766 14.6993 0.0000 0.0000 0.0000 1.4026 19.3527 -107.4508 -24.8973 -19.4150 104.4543 -7.1737 -10.6587 49.6948 -0.0222 0.9628 -2.6466 3.7977 -1.2534 20.5770 1.5052 -0.7731 4.9626 -0.3461 -0.4337 -6.1323 -1.7968 -0.8679 -15.4219 -0.8812 -0.5506 36.3144 -0.1650 -0.6642 15.3047 -0.0000 0.0000 0.0000 -27.1540 25.5187 -2.6446 11.9887 -19.7876 -2.0984 -0.0000 0.0000 -7.8872 25.1509 -24.3177 -10.9429 -7.1250 0.0000 -0.0000 -2.5844 3.4739 2.4256 -0.0000 0.0000 0.0000 31.6413 -30.4814 -1.9084 -15.3365 24.6128 -3.3648 0.0000 0.0000 8.9126 -32.1778 -44.0291 23.6199 7.1250 -0.0000 -0.0000 13.9754 -78.4734 -10.9350
4.9002 16.3369 2.2423 -6.9227 -10.4367 5.3183 0.0000 0.0000 0.0000 -20.3584 -7.7851 -30.8746 7.7628 15.9420 51.7039 1.8437 -0.8837 -25.4357 0.7184 5.4165 15.1003 0.0000 0.0000 0.0000 1.3565 19.2917 -107.3813 -24.8924 -19.4162 104.4395 -7.1547 -10.3109 49.6477 -0.0275 1.0707 -2.9433 3.7566 -1.2587 20.5286 1.4657 -0.7971 5.0425 -0.3610 -0.4430 -6.0213 -1.6656 -0.8227 -15.5907 -1.0537 -0.4552 36.2657 -0.2451 -0.6294 15.3195 0.0000 -0.0000 0.0000 -26.8228 25.7476 -2.4180 11.9570 -19.7402 -2.0878 -0.0000 0.0000 -8.3790 25.2071 -24.8630 -11.1949 -7.1250 0.0000 -0.0000 -2.6202 2.8842 2.4877 0.0000 -0.0000 0.0000 31.5824 -30.3631 -2.2928 -15.2119 24.4404 -3.3131 0.0000 0.0000 9.1288 -31.7973 -44.2589 23.3968 7.1250 -0.0000 -0.0000 15.2520 -78.5275 -11.9577
